<svg version="1.0" xmlns="http://www.w3.org/2000/svg" width="64" height="64" fill="none" viewBox="0 0 2000 2000">
    <style>
        g {
            fill: #000000;
        }

        @media (prefers-color-scheme: dark) {
            g {
                fill: #ffffff;
            }
        }
    </style>
<g transform="translate(0.000000,2000.000000) scale(0.100000,-0.100000)"
fill="#000000" stroke="none">
<path d="M8305 19424 c-2509 -27 -3917 -168 -4905 -489 -1426 -465 -2159
-1345 -2514 -3015 -168 -790 -252 -1768 -298 -3460 -17 -642 -17 -4278 0
-4920 52 -1915 152 -2921 377 -3795 338 -1315 992 -2111 2104 -2560 823 -332
1892 -499 3641 -570 864 -34 1288 -40 3290 -40 2002 0 2426 6 3290 40 1537 62
2536 198 3310 450 630 206 1090 473 1476 859 386 386 653 846 859 1476 252
774 388 1773 450 3310 34 860 40 1289 40 3290 0 2001 -6 2430 -40 3290 -62
1537 -198 2536 -450 3310 -206 630 -473 1090 -859 1476 -386 386 -846 653
-1476 859 -891 290 -1979 416 -4095 476 -332 9 -3603 19 -4200 13z m2540 -823
c496 -45 768 -129 1003 -308 124 -95 227 -225 311 -392 34 -66 101 -225 101
-238 0 -2 -1017 -3 -2260 -3 -1243 0 -2260 1 -2260 3 0 11 66 169 94 226 232
460 607 659 1341 711 248 17 257 17 915 14 350 -1 689 -7 755 -13z m-3605 -93
c-104 -175 -232 -475 -305 -720 l-39 -128 -1205 0 -1205 0 69 71 c437 444
1128 685 2280 798 250 25 280 27 368 29 l69 2 -32 -52z m5970 17 c1134 -118
1802 -355 2235 -794 l69 -71 -1205 0 -1205 0 -39 128 c-85 284 -213 583 -320
746 l-19 29 124 -7 c69 -4 231 -18 360 -31z m-9338 -342 c-94 -106 -223 -283
-297 -408 l-69 -115 -419 0 -420 0 39 31 c198 158 535 335 859 450 88 31 338
108 353 109 8 0 -13 -30 -46 -67z m12407 10 c388 -120 686 -264 972 -469 l81
-59 -413 -3 c-227 -1 -416 1 -420 5 -4 5 -37 57 -73 117 -97 159 -203 303
-330 444 l-21 24 30 -8 c17 -4 95 -27 174 -51z m-13109 -1351 c0 -4 -11 -47
-25 -96 -96 -329 -190 -838 -252 -1358 l-28 -238 -647 0 c-357 0 -648 2 -648
4 0 19 44 298 65 411 86 464 207 875 351 1184 l47 101 568 0 c313 0 569 -4
569 -8z m3565 -19 c-20 -108 -73 -638 -95 -933 -15 -208 -40 -637 -40 -692 l0
-48 -1460 0 -1460 0 0 33 c1 162 120 886 196 1190 31 126 107 382 133 450 l11
27 1360 0 1359 0 -4 -27z m5715 17 c0 -6 7 -54 15 -108 40 -271 84 -730 110
-1152 8 -135 17 -287 20 -337 l6 -93 -2598 0 -2598 0 3 57 c27 589 81 1222
133 1566 l11 77 2449 0 c1637 0 2449 -3 2449 -10z m3549 -44 c66 -177 148
-494 205 -796 50 -266 116 -734 116 -825 l0 -25 -1454 0 -1455 0 -5 43 c-3 23
-8 101 -11 172 -20 436 -99 1328 -130 1463 l-5 22 1359 0 1360 0 20 -54z
m2015 -47 c144 -309 265 -720 351 -1184 21 -113 65 -392 65 -411 0 -2 -292 -4
-650 -4 l-650 0 0 28 c0 49 -58 503 -90 703 -52 326 -121 659 -181 864 -11 39
-23 78 -25 88 -5 16 27 17 564 17 l569 0 47 -101z m-15218 -2516 c-42 -693
-75 -2258 -76 -3600 l0 -233 -670 0 -670 0 0 538 c0 1229 41 2702 90 3242 5
58 9 117 10 133 l0 27 661 0 662 0 -7 -107z m3771 -5 c-9 -165 -27 -1618 -33
-2800 l-6 -1028 -1501 0 -1500 0 6 973 c7 990 19 1655 37 2147 13 357 28 679
36 758 l6 62 1480 0 1481 0 -6 -112z m6067 -120 c14 -524 25 -1566 28 -2603
l3 -1100 -2660 0 -2660 0 2 1165 c2 1143 18 2644 29 2728 l5 42 2623 0 2624 0
6 -232z m3760 170 c8 -80 23 -403 36 -758 18 -499 30 -1171 37 -2152 l6 -968
-1499 2 -1499 3 -7 1370 c-3 754 -11 1602 -17 1885 -6 283 -11 552 -11 598 l0
82 1474 0 1474 0 6 -62z m2126 45 c0 -10 7 -106 15 -213 51 -673 85 -1948 85
-3172 l0 -538 -670 0 -670 0 0 228 c-1 1186 -31 2719 -65 3392 -8 162 -15 301
-15 308 0 9 139 12 660 12 622 0 660 -1 660 -17z m-15800 -4950 c2 -1351 34
-2913 76 -3605 l7 -108 -662 0 -661 0 0 28 c-1 15 -5 74 -10 131 -49 547 -90
1999 -90 3239 l0 542 670 0 670 0 0 -227z m3814 -800 c7 -1191 24 -2650 32
-2805 l7 -108 -1481 0 -1480 0 -6 63 c-34 366 -63 1523 -73 2905 l-6 972 1500
0 1501 0 6 -1027z m6128 -78 c-3 -1037 -14 -2079 -28 -2602 l-6 -233 -2624 0
-2623 0 -5 43 c-16 120 -47 3844 -33 3881 6 15 211 16 2664 14 l2658 -3 -3
-1100z m3805 137 c-7 -981 -19 -1653 -37 -2152 -13 -355 -28 -678 -36 -757
l-6 -63 -1475 0 -1476 0 7 328 c16 777 26 1733 26 2633 0 531 3 969 7 972 3 4
679 7 1501 7 l1495 0 -6 -968z m2153 426 c0 -1236 -41 -2693 -90 -3239 -5 -57
-9 -116 -10 -131 l0 -28 -661 0 -661 0 6 103 c40 631 74 2275 76 3610 l0 227
670 0 670 0 0 -542z m-15726 -4450 c31 -270 101 -716 141 -908 22 -104 107
-445 131 -528 l6 -22 -573 2 -573 3 -68 155 c-121 281 -227 639 -304 1025 -29
146 -83 476 -84 508 0 4 291 7 648 7 l647 0 29 -242z m3706 195 c0 -117 38
-701 66 -1008 16 -184 61 -586 69 -623 l5 -22 -1362 2 -1362 3 -49 150 c-90
281 -167 625 -227 1025 -33 218 -60 438 -60 488 l0 32 1460 0 1460 0 0 -47z
m5995 -45 c-3 -51 -12 -203 -20 -338 -26 -422 -70 -881 -110 -1152 -8 -54 -15
-102 -15 -108 0 -7 -812 -10 -2449 -10 l-2449 0 -11 78 c-52 343 -106 976
-133 1565 l-3 57 2598 0 2598 0 -6 -92z m3725 60 c0 -50 -27 -270 -60 -488
-60 -400 -137 -744 -227 -1025 l-49 -150 -1360 -3 -1360 -2 23 182 c43 344 92
935 108 1298 3 74 8 154 11 178 l5 42 1455 0 1454 0 0 -32z m2110 25 c-1 -32
-55 -362 -84 -508 -77 -386 -183 -744 -304 -1025 l-68 -155 -573 -3 c-543 -2
-573 -1 -566 15 14 37 86 325 120 479 60 276 175 1048 175 1174 l0 30 650 0
c358 0 650 -3 650 -7z m-14885 -2570 c84 -147 207 -317 323 -450 34 -40 58
-73 53 -73 -31 0 -341 102 -520 170 -211 82 -542 267 -695 389 l-39 31 420 0
419 0 39 -67z m3385 -45 c69 -237 191 -531 296 -709 24 -42 44 -78 44 -81 0
-6 -84 -1 -350 23 -1187 104 -1888 338 -2350 786 l-95 92 1211 1 1211 0 33
-112z m5330 107 c0 -8 -57 -147 -90 -218 -77 -169 -219 -342 -361 -443 -176
-124 -394 -201 -689 -244 -244 -35 -388 -42 -970 -47 -767 -7 -1114 11 -1413
72 -436 90 -711 284 -887 626 -39 75 -110 241 -110 256 0 2 1017 3 2260 3
1243 0 2260 -2 2260 -5z m3170 -88 c-462 -448 -1163 -682 -2350 -786 -254 -23
-350 -29 -350 -24 0 2 18 34 41 71 96 159 228 475 299 720 l33 112 1211 0
1211 -1 -95 -92z m1895 85 c-132 -114 -411 -277 -641 -376 -184 -79 -588 -216
-600 -204 -1 2 34 45 78 97 96 113 205 266 282 395 l57 96 417 0 c229 0 412
-4 407 -8z"/>
</g>
</svg>
